<?xml version="1.0" encoding="iso-8859-1"?>
<!-- Generator: Adobe Illustrator 19.0.0, SVG Export Plug-In . SVG Version: 6.00 Build 0)  -->
<svg version="1.1" id="Capa_1" xmlns="http://www.w3.org/2000/svg" xmlns:xlink="http://www.w3.org/1999/xlink" x="0px" y="0px"
	 viewBox="0 0 496.485 496.485" style="enable-background:new 0 0 496.485 496.485;" xml:space="preserve">
<circle style="fill:#F16051;" cx="213.333" cy="183.855" r="183.855"/>
<rect x="72.921" y="229.624" style="fill:#FFFFFF;" width="387.879" height="260.655"/>
<path style="fill:#193651;" d="M460.8,496.485H72.921c-3.103,0-6.206-3.103-6.206-6.206V229.624c0-3.103,3.103-6.206,6.206-6.206
	H460.8c3.103,0,6.206,3.103,6.206,6.206v260.655C467.006,493.382,463.903,496.485,460.8,496.485z M79.127,484.073h375.467V235.83
	H79.127V484.073z"/>
<path style="fill:#4FBF9F;" d="M242.812,212.558H106.279V440.63h136.533c13.188,0,24.048,10.085,24.048,21.721V234.279
	C266.861,221.867,256,212.558,242.812,212.558z"/>
<path style="fill:#193651;" d="M266.861,468.558c-3.103,0-6.206-3.103-6.206-6.206c0-8.533-7.758-15.515-17.842-15.515H106.279
	c-3.103,0-6.206-3.103-6.206-6.206V212.558c0-3.103,3.103-6.206,6.206-6.206h136.533c16.291,0,30.255,12.412,30.255,27.927v228.073
	C273.067,465.455,269.964,468.558,266.861,468.558z M112.485,434.424h130.327c6.206,0,12.412,2.327,17.842,5.43V234.279
	c0-8.533-7.758-15.515-17.842-15.515H112.485V434.424z"/>
<rect x="132.655" y="238.933" style="fill:#FFFFFF;" width="107.055" height="174.545"/>
<path style="fill:#4FBF9F;" d="M427.442,212.558H290.909c-13.188,0-24.048,10.085-24.048,21.721v228.073
	c0-11.636,10.861-21.721,24.048-21.721h136.533V212.558z"/>
<path style="fill:#193651;" d="M266.861,468.558c-3.103,0-6.206-3.103-6.206-6.206V234.279c0-15.515,13.188-27.927,30.255-27.927
	h136.533c3.103,0,6.206,3.103,6.206,6.206V440.63c0,3.103-3.103,6.206-6.206,6.206H290.909c-10.085,0-17.842,6.982-17.842,15.515
	C273.067,465.455,269.964,468.558,266.861,468.558z M290.909,218.764c-10.085,0-17.842,6.982-17.842,15.515v205.576
	c4.655-3.103,10.861-5.43,17.842-5.43h130.327V218.764H290.909z"/>
<rect x="293.236" y="238.933" style="fill:#FFFFFF;" width="107.055" height="174.545"/>
<g>
	<rect x="346.764" y="300.994" style="fill:#193651;" width="38.012" height="12.412"/>
	<rect x="308.752" y="339.006" style="fill:#193651;" width="76.8" height="12.412"/>
	<rect x="308.752" y="377.018" style="fill:#193651;" width="16.291" height="12.412"/>
	<rect x="339.006" y="377.018" style="fill:#193651;" width="16.291" height="12.412"/>
	<rect x="369.261" y="377.018" style="fill:#193651;" width="16.291" height="12.412"/>
	<rect x="148.17" y="300.994" style="fill:#193651;" width="76.8" height="12.412"/>
	<rect x="148.17" y="339.006" style="fill:#193651;" width="76.8" height="12.412"/>
	<rect x="148.17" y="377.018" style="fill:#193651;" width="16.291" height="12.412"/>
	<rect x="178.424" y="377.018" style="fill:#193651;" width="16.291" height="12.412"/>
</g>
<polygon style="fill:#E1E6E9;" points="72.921,102.4 72.921,257.552 245.139,257.552 317.285,313.406 317.285,257.552 
	354.521,257.552 354.521,102.4 "/>
<path style="fill:#193651;" d="M313.406,318.836l-70.594-54.303H72.145c-3.103,0-6.206-3.103-6.206-6.206V102.4
	c0-3.103,3.103-6.206,6.206-6.206h281.6c3.103,0,6.206,3.103,6.206,6.206v155.927c0,3.103-3.103,6.206-6.206,6.206h-31.03v49.648
	c0,2.327-1.552,4.655-3.879,5.43C318.061,320.388,315.733,320.388,313.406,318.836z M79.127,251.345h166.788
	c1.552,0,3.103,0.776,3.879,1.552l62.061,48.097v-43.442c0-3.103,3.103-6.206,6.206-6.206h31.03V108.606H79.127V251.345z"/>
<polygon style="fill:#FFFFFF;" points="253.673,232.727 97.745,232.727 97.745,127.224 329.697,127.224 329.697,232.727 
	292.461,232.727 292.461,262.206 "/>
<g>
	<path style="fill:#193651;" d="M123.345,193.164l-4.655,13.188h-8.533l20.945-57.406h8.533l20.945,57.406h-8.533l-4.655-13.188
		H123.345z M144.291,183.855l-8.533-23.273l-8.533,23.273H144.291z"/>
	<path style="fill:#193651;" d="M190.836,206.352h-20.945v-57.406h18.618c3.103,0,6.206,0.776,8.533,1.552
		c2.327,0.776,3.879,2.327,5.43,3.879c2.327,3.103,3.103,6.206,3.103,10.085c0,4.655-1.552,7.758-3.879,10.085
		c-0.776,0.776-1.552,1.552-1.552,1.552s-0.776,0.776-1.552,0.776c3.103,0.776,5.43,2.327,6.982,4.655
		c1.552,2.327,2.327,5.43,2.327,9.309c0,3.879-0.776,7.758-3.103,10.861C201.697,204.024,197.042,206.352,190.836,206.352z
		 M178.424,172.994h10.085c5.43,0,8.533-2.327,8.533-6.982c0-3.103-0.776-4.655-2.327-6.206c-1.552-1.552-3.879-1.552-6.206-1.552
		h-10.085V172.994z M178.424,197.042h12.412c3.103,0,5.43-0.776,6.982-1.552s2.327-3.103,2.327-6.206
		c0-5.43-3.103-7.758-10.085-7.758h-11.636V197.042z"/>
	<path style="fill:#193651;" d="M242.812,197.042c3.103,0,5.43-0.776,6.982-1.552c1.552-0.776,3.879-3.103,6.206-5.43l5.43,6.206
		c-4.655,6.982-10.861,10.085-17.842,10.085s-13.188-3.103-17.842-8.533c-4.655-5.43-6.982-12.412-6.982-20.945
		s2.327-15.515,6.982-20.945c4.655-5.43,10.861-8.533,17.842-8.533c6.982,0,13.188,3.103,18.618,10.085l-5.43,6.982
		c-2.327-2.327-4.655-4.655-6.206-5.43c-2.327-0.776-4.655-1.552-6.982-1.552c-4.655,0-8.533,1.552-11.636,5.43
		c-3.103,3.879-4.655,8.533-4.655,13.964c0,5.43,1.552,10.861,4.655,14.739C234.279,195.491,238.158,197.042,242.812,197.042z"/>
	<path style="fill:#193651;" d="M309.527,156.703c4.655,4.655,6.982,11.636,6.982,20.945c0,8.533-2.327,16.291-6.982,20.945
		c-4.655,5.43-10.861,7.758-20.17,7.758h-15.515v-57.406h16.291C298.667,148.945,305.648,151.273,309.527,156.703z M308.752,177.648
		c0-13.188-6.206-19.394-18.618-19.394h-7.758v39.564h8.533c5.43,0,10.085-1.552,13.188-4.655
		C307.2,188.509,308.752,183.855,308.752,177.648z"/>
</g>
<g>
</g>
<g>
</g>
<g>
</g>
<g>
</g>
<g>
</g>
<g>
</g>
<g>
</g>
<g>
</g>
<g>
</g>
<g>
</g>
<g>
</g>
<g>
</g>
<g>
</g>
<g>
</g>
<g>
</g>
</svg>
