<svg height="418pt" viewBox="0 0 418.45466 418" width="418pt" xmlns="http://www.w3.org/2000/svg"><path d="m146.285156 49.015625h181.117188c15.386718 0 27.863281 12.476563 27.863281 27.863281v299.539063c0 15.390625-12.476563 27.863281-27.863281 27.863281h-181.117188c-15.390625 0-27.867187-12.472656-27.867187-27.863281v-299.539063c0-15.386718 12.476562-27.863281 27.867187-27.863281zm0 0" fill="#c2d197"/><path d="m192.371094 291.476562 4.875-8.414062c1.925781-3.332031.785156-7.59375-2.546875-9.515625l-24.132813-13.933594c-3.332031-1.921875-7.589844-.78125-9.515625 2.550781l-1.550781 2.695313-41.082031-35.492187v97.734374l3.953125 2.027344-3.953125 6.847656v14.195313l8.652343 4.996094-8.652343 15.269531v5.980469c0 5.609375 1.703125 11.082031 4.878906 15.703125l4.910156-1.316406c1.839844-.476563 3.71875.605468 4.230469 2.4375l2.253906 8.433593c3.632813 1.699219 7.585938 2.589844 11.59375 2.605469h.996094l25.1875-44.449219 68.8125 44.449219h54c1.613281-1.796875 3.042969-3.757812 4.253906-5.851562l3.484375-6.03125 31.347657-54.292969zm0 0" fill="#649454"/><path d="m327.402344 49.015625h-49.578125l-9.328125 4.765625c-3.046875 1.558594-4.511719 5.105469-3.449219 8.359375l6.820313 21.078125c.453124 1.390625.453124 2.890625 0 4.285156l-6.820313 21.070313c-1.0625 3.257812.402344 6.800781 3.449219 8.359375l19.726562 10.082031c1.304688.664063 2.363282 1.726563 3.03125 3.03125l10.078125 19.726563c1.550781 3.058593 5.097657 4.539062 8.359375 3.484374l21.074219-6.820312c1.390625-.453125 2.890625-.453125 4.285156 0l20.214844 6.460938v-76.019532c0-15.386718-12.476563-27.863281-27.863281-27.863281zm0 0" fill="#9cb16a"/><path d="m343.472656 15.863281 21.078125-6.816406c3.261719-1.058594 6.808594.421875 8.359375 3.480469l10.078125 19.730468c.667969 1.300782 1.726563 2.363282 3.03125 3.027344l19.726563 10.082032c3.050781 1.558593 4.511718 5.105468 3.449218 8.359374l-6.820312 21.078126c-.453125 1.390624-.453125 2.886718 0 4.277343l6.820312 21.078125c1.0625 3.257813-.398437 6.800782-3.449218 8.359375l-19.726563 10.082031c-1.304687.664063-2.363281 1.726563-3.03125 3.03125l-10.078125 19.726563c-1.550781 3.058594-5.097656 4.539063-8.359375 3.484375l-21.078125-6.820312c-1.390625-.453126-2.890625-.453126-4.277344 0l-21.082031 6.820312c-3.261719 1.054688-6.808593-.425781-8.359375-3.484375l-10.078125-19.726563c-.667969-1.304687-1.726562-2.363281-3.03125-3.03125l-19.726562-10.082031c-3.046875-1.558593-4.511719-5.105469-3.449219-8.359375l6.820312-21.078125c.453126-1.390625.453126-2.886719 0-4.277343l-6.820312-21.078126c-1.0625-3.257812.402344-6.800781 3.449219-8.359374l19.726562-10.082032c1.304688-.664062 2.363281-1.726562 3.03125-3.027344l10.078125-19.730468c1.550782-3.058594 5.097656-4.539063 8.359375-3.480469l21.082031 6.816406c1.390626.453125 2.886719.453125 4.277344 0zm0 0" fill="#eb120d"/><path d="m369.195312 76.878906c0 15.390625-12.472656 27.863282-27.863281 27.863282-15.386719 0-27.863281-12.472657-27.863281-27.863282 0-15.386718 12.476562-27.863281 27.863281-27.863281 15.390625 0 27.863281 12.476563 27.863281 27.863281zm0 0" fill="#ff5e5b"/><g fill="#649454"><path d="m292.570312 181.371094h-118.421874c-3.847657 0-6.96875-3.121094-6.96875-6.96875 0-3.84375 3.121093-6.964844 6.96875-6.964844h118.421874c3.847657 0 6.964844 3.117188 6.964844 6.964844s-3.117187 6.96875-6.964844 6.96875zm0 0"/><path d="m292.570312 216.199219h-97.523437c-3.847656 0-6.96875-3.117188-6.96875-6.964844s3.121094-6.964844 6.96875-6.964844h97.523437c3.847657 0 6.964844 3.117188 6.964844 6.964844s-3.117187 6.964844-6.964844 6.964844zm0 0"/><path d="m292.570312 251.03125h-48.761718c-3.847656 0-6.96875-3.117188-6.96875-6.964844s3.121094-6.96875 6.96875-6.96875h48.761718c3.847657 0 6.964844 3.117188 6.964844 6.96875 0 3.847656-3.117187 6.964844-6.964844 6.964844zm0 0"/></g><path d="m188.078125 104.746094h41.796875c7.695312 0 13.933594 6.234375 13.933594 13.929687 0 7.695313-6.238282 13.933594-13.933594 13.933594h-41.796875c-7.695313 0-13.929687-6.238281-13.929687-13.933594 0-7.695312 6.234374-13.929687 13.929687-13.929687zm0 0" fill="#eb120d"/><path d="m150.75 403.210938-4.597656-17.179688c-.511719-1.828125-2.390625-2.914062-4.230469-2.4375l-17.171875 4.605469c-1.867188.457031-3.75-.6875-4.207031-2.558594-.207031-.84375-.089844-1.734375.328125-2.5l39.34375-69.414063 36.222656 20.898438-39.34375 69.414062c-.980469 1.65625-3.117188 2.199219-4.773438 1.21875-.765624-.457031-1.328124-1.1875-1.570312-2.046874zm0 0" fill="#9e0c09"/><path d="m76.628906 174.160156 126.09375 109.003906 145.382813 47.730469-31.347657 54.300781-271.476562-156.734374zm0 0" fill="#649454"/><path d="m265.695312 403.976562-117.175781-75.691406-124.140625-63.628906c-16.660156-9.617188-22.367187-30.917969-12.75-47.578125l3.484375-6.03125c9.613281-16.660156 30.917969-22.371094 47.578125-12.757813v.003907l117.175782 75.726562 124.140624 63.621094c16.660157 9.617187 22.371094 30.917969 12.753907 47.578125 0 0-.003907.003906-.003907.007812l-3.484374 6.03125c-9.628907 16.648438-30.925782 22.34375-47.578126 12.71875zm0 0" fill="#9cb16a"/><path d="m184.28125 252.40625 24.128906 13.933594c3.332032 1.921875 4.472656 6.183594 2.550782 9.515625l-45.277344 78.425781c-1.925782 3.332031-6.183594 4.472656-9.515625 2.550781l-24.132813-13.933593c-3.332031-1.921876-4.472656-6.183594-2.550781-9.515626l45.28125-78.425781c1.921875-3.332031 6.183594-4.472656 9.515625-2.550781zm0 0" fill="#eb120d"/><path d="m350.269531 324.277344-136.671875-44.875c1.1875-15.1875-10.164062-28.460938-25.355468-29.648438-3.953126-.308594-7.925782.238282-11.648438 1.605469l-95.433594-82.464844c-2.910156-2.515625-7.308594-2.199219-9.828125.710938-.285156.332031-.539062.691406-.761719 1.070312l-10.726562 18.636719c-19.105469-7.140625-40.570312.578125-50.753906 18.25l-3.484375 6.023438c-11.539063 19.992187-4.691407 45.554687 15.300781 57.097656.101562.054687.203125.113281.304688.171875l106.355468 54.515625c-1.953125 8.195312-.097656 16.832031 5.046875 23.503906l-21.9375 37.992188c-1.925781 3.332031-.785156 7.59375 2.546875 9.515624 1.601563.925782 3.503906 1.175782 5.289063.699219l21.824219-5.851562 5.84375 21.824219c.730468 2.714843 3.023437 4.726562 5.8125 5.097656.300781.042968.605468.0625.910156.0625 2.492187.003906 4.796875-1.324219 6.039062-3.480469l30.039063-52.03125 73.234375 47.304687c19.988281 11.546876 45.550781 4.703126 57.097656-15.285156.007812-.011718.015625-.023437.023438-.039062l3.480468-6.023438 31.347656-54.300781c1.921876-3.332031.78125-7.59375-2.550781-9.515625-.417969-.238281-.855469-.4375-1.3125-.585938zm-157.433593-58.875c6.660156 3.847656 8.941406 12.367187 5.09375 19.03125l-31.347657 54.335937c-3.890625 6.636719-12.425781 8.863281-19.066406 4.972657-6.574219-3.855469-8.832031-12.28125-5.0625-18.90625l31.347656-54.292969c3.816407-6.679688 12.328125-8.996094 19.007813-5.175781.023437.011718.042968.023437.0625.035156zm-114.378907-80.457032 69.757813 60.296876-76.175782-49.195313zm-63.574219 56.757813c-1.929687-7.140625-.925781-14.753906 2.785157-21.148437l3.484375-6.027344c7.625-13.210938 24.457031-17.839844 37.761718-10.378906l99.90625 64.519531-25.410156 44.023437-105.550781-54.074218c-6.410156-3.675782-11.085937-9.769532-12.976563-16.914063zm140.394532 151.496094-3.289063-12.300781c-.996093-3.714844-4.816406-5.921876-8.53125-4.925782 0 0 0 0-.003906 0l-12.308594 3.296875 12.609375-21.832031c9.921875 4.195312 21.378906 2.257812 29.371094-4.96875l4.128906 2.664062zm114.199218 4.925781-88.175781-56.960938 26.117188-45.230468 93.109375 47.746094c13.324218 7.695312 17.890625 24.734374 10.195312 38.0625l-3.480468 6.023437c-7.632813 13.207031-24.464844 17.824219-37.765626 10.359375zm56.71875-43.1875c-3.160156-9.945312-9.941406-18.339844-18.996093-23.519531l-35.957031-18.390625 66.539062 21.847656zm0 0"/><path d="m408.972656 76.878906 8.644532-26.707031c1.054687-3.265625-.421876-6.8125-3.484376-8.359375l-24.972656-12.761719-12.769531-25c-1.546875-3.0625-5.09375-4.539062-8.355469-3.484375l-26.703125 8.671875-26.714843-8.644531c-3.261719-1.054688-6.8125.421875-8.359376 3.484375l-12.753906 24.972656-25 12.769531c-.113281.0625-.191406.167969-.300781.230469h-121.917969c-19.226562.023438-34.808594 15.601563-34.832031 34.828125v95.785156c0 3.84375 3.117187 6.964844 6.964844 6.964844 3.847656 0 6.96875-3.117187 6.96875-6.964844v-95.785156c0-11.539062 9.355469-20.898437 20.898437-20.898437h120.644532l6.765624 20.898437-8.644531 26.707032c-1.058593 3.265624.421875 6.8125 3.480469 8.359374l25 12.769532 12.769531 25c1.550781 3.0625 5.097657 4.539062 8.359375 3.484375l26.675782-8.679688 6.964843 2.257813v153.015625c0 3.847656 3.117188 6.964843 6.964844 6.964843s6.96875-3.117187 6.96875-6.964843v-148.507813l5.816406 1.878906c3.261719 1.058594 6.808594-.421874 8.359375-3.480468l12.769532-25.003906 25-12.769532c3.058593-1.546875 4.539062-5.09375 3.484374-8.355468zm-13.929687 2.144532 7.507812 23.207031-21.71875 11.097656c-1.304687.667969-2.367187 1.730469-3.03125 3.035156l-11.113281 21.71875-23.210938-7.507812c-1.390624-.457031-2.890624-.457031-4.28125 0l-23.210937 7.507812-11.097656-21.71875c-.667969-1.308593-1.730469-2.371093-3.039063-3.035156l-21.71875-11.097656 7.507813-23.207031c.460937-1.390626.460937-2.894532 0-4.289063l-7.507813-23.203125 21.722656-11.097656c1.304688-.667969 2.367188-1.730469 3.035157-3.035156l11.097656-21.722657 23.210937 7.511719c1.390626.449219 2.890626.449219 4.285157 0l23.210937-7.511719 11.09375 21.722657c.667969 1.304687 1.726563 2.367187 3.03125 3.035156l21.722656 11.097656-7.511718 23.203125c-.449219 1.394531-.449219 2.894531 0 4.289063zm0 0"/><path d="m341.332031 42.050781c-19.234375 0-34.828125 15.59375-34.828125 34.828125 0 19.238282 15.59375 34.832032 34.828125 34.832032 19.238281 0 34.832031-15.59375 34.832031-34.832032-.023437-19.226562-15.605468-34.804687-34.832031-34.828125zm0 55.726563c-11.542969 0-20.898437-9.355469-20.898437-20.898438 0-11.539062 9.355468-20.898437 20.898437-20.898437s20.898438 9.359375 20.898438 20.898437c0 11.542969-9.355469 20.898438-20.898438 20.898438zm0 0"/><path d="m174.148438 181.371094h118.421874c3.847657 0 6.964844-3.121094 6.964844-6.96875 0-3.84375-3.117187-6.964844-6.964844-6.964844h-118.421874c-3.847657 0-6.96875 3.117188-6.96875 6.964844s3.121093 6.96875 6.96875 6.96875zm0 0"/><path d="m292.570312 202.269531h-97.523437c-3.847656 0-6.96875 3.117188-6.96875 6.964844s3.121094 6.96875 6.96875 6.96875h97.523437c3.847657 0 6.964844-3.121094 6.964844-6.96875s-3.117187-6.964844-6.964844-6.964844zm0 0"/><path d="m292.570312 237.097656h-48.761718c-3.847656 0-6.96875 3.121094-6.96875 6.96875s3.121094 6.964844 6.96875 6.964844h48.761718c3.847657 0 6.964844-3.117188 6.964844-6.964844s-3.117187-6.96875-6.964844-6.96875zm0 0"/><path d="m188.078125 111.710938h41.796875c3.847656 0 6.96875-3.121094 6.96875-6.96875 0-3.847657-3.121094-6.964844-6.96875-6.964844h-41.796875c-11.539063 0-20.898437 9.355468-20.898437 20.898437s9.359374 20.898438 20.898437 20.898438h41.796875c3.847656 0 6.96875-3.117188 6.96875-6.96875 0-3.84375-3.121094-6.964844-6.96875-6.964844h-41.796875c-3.84375 0-6.964844-3.117187-6.964844-6.964844 0-3.847656 3.121094-6.964843 6.964844-6.964843zm0 0"/></svg>