<?xml version="1.0"?>
<svg xmlns="http://www.w3.org/2000/svg" xmlns:xlink="http://www.w3.org/1999/xlink" version="1.1" id="Capa_1" x="0px" y="0px" viewBox="0 0 368 368" style="enable-background:new 0 0 368 368;" xml:space="preserve" width="512px" height="512px"><g><g>
	<g>
		<path d="M344,0H24C10.768,0,0,10.768,0,24v320c0,13.232,10.768,24,24,24h320c13.232,0,24-10.768,24-24V24    C368,10.768,357.232,0,344,0z M352,344c0,4.416-3.584,8-8,8H24c-4.408,0-8-3.584-8-8V24c0-4.416,3.592-8,8-8h320    c4.416,0,8,3.584,8,8V344z" data-original="#000000" class="active-path" data-old_color="#000000" fill="#002147"/>
	</g>
</g><g>
	<g>
		<path d="M264,48c-30.872,0-56,25.128-56,56v160c0,30.872,25.128,56,56,56s56-25.128,56-56V104C320,73.128,294.872,48,264,48z     M304,264c0,22.056-17.944,40-40,40c-22.056,0-40-17.944-40-40V143.112C234.176,153.52,248.336,160,264,160s29.824-6.48,40-16.888    V264z M264,144c-22.056,0-40-17.944-40-40c0-22.056,17.944-40,40-40c22.056,0,40,17.944,40,40C304,126.056,286.056,144,264,144z" data-original="#000000" class="active-path" data-old_color="#000000" fill="#002147"/>
	</g>
</g><g>
	<g>
		<path d="M104,48c-30.88,0-56,25.128-56,56v160c0,30.872,25.12,56,56,56s56-25.128,56-56V104C160,73.128,134.88,48,104,48z     M104,304c-22.056,0-40-17.944-40-40c0-22.056,17.944-40,40-40c22.056,0,40,17.944,40,40C144,286.056,126.056,304,104,304z     M144,224.888C133.824,214.48,119.664,208,104,208s-29.824,6.48-40,16.888V104c0-22.056,17.944-40,40-40c22.056,0,40,17.944,40,40    V224.888z" data-original="#000000" class="active-path" data-old_color="#000000" fill="#002147"/>
	</g>
</g></g> </svg>
